# xmcd CD database file
#
# Track frame offsets:
#	150
#	23335
#	52701
#	74377
#	111334
#	137884
#	160023
#	181568
#
# Disc length: 2742 seconds
#
# Revision: 0
# Processed by: cddbd v1.5.2PL0 Copyright (c) Steve Scherf et al.
# Submitted via: CDex 1.70beta2
#
DISCID=590ab408
DTITLE=Miles Davis - I cound write a book
DYEAR=2007
DGENRE=Jazz
TTITLE0=I could write a book
TTITLE1=It Could Happen To You
TTITLE2=You're My Everything
TTITLE3=If I Were A Bell
TTITLE4=Oleo
TTITLE5=Woody'n You
TTITLE6=I See Your Face Beforre Me
TTITLE7=There Is No Greather Love
EXTD=YEAR: 2007
EXTT0=
EXTT1=
EXTT2=
EXTT3=
EXTT4=
EXTT5=
EXTT6=
EXTT7=
PLAYORDER=
